<svg id="Layer_1" data-name="Layer 1" xmlns="http://www.w3.org/2000/svg" viewBox="0 0 408.96 160.42"><defs><style>.cls-1{fill:#010101;}.cls-2{fill:#0b7abf;}</style></defs><title>erielogo-color</title><path class="cls-1" d="M557.57,366.62v-4.29H526.45V341.19h27.42v-4.29H526.45V317.69h30.38V313.4h-35.4v53.22h36.14Zm8.57-18.78c0-8.57,2.66-16,12.64-15.74v-4.81c-6.43,0-10.05,2.07-12.49,8.21h-0.15v-7.17h-4.44v38.29h4.44V347.84Zm20.62-19.51h-4.43v38.29h4.43V328.33ZM587,313.4h-4.88V320H587V313.4Zm8.65,31.41c0.89-7.24,5-13.52,12.86-13.52,8,0,12.12,6.06,12.12,13.52h-25Zm29.71,3.7c0.07-13.75-6.36-21.21-16.86-21.21-10.94,0-17.59,9.16-17.59,20.33,0,11.31,5.32,20,17.59,20,9.76,0,14.34-5.54,16.56-12.79h-5c-1.33,5.62-5.84,8.8-11.61,8.8-8.5,0-12.93-6.88-12.86-15.15h29.71Z" transform="translate(-399.6 -268.61)"/><path class="cls-1" d="M526.9,374.77h-5V428h5V374.77Zm12.32,32.59a19.74,19.74,0,0,1,1-7.24,11.17,11.17,0,0,1,10.64-7.47c7.1,0,9.91,3.48,9.91,10.35v25h4.43V402.93c0-3.18-.07-6.06-1.92-8.79-2.74-4-7-5.47-11.68-5.47-5.32,0-8.8,2.59-12.35,6.36V389.7h-4.43V428h4.43V407.37ZM568.76,416c0.37,7.25,5.54,13,14.56,13s15.6-3.84,15.6-11.16c0-14.71-24.54-8.21-24.54-18.62,0-3.92,3-6.58,8.65-6.58s9.54,2.14,10.35,8.06h4.51c-1.11-8.65-6.51-12.05-14.78-12.05-8.5,0-13.45,4.58-13.45,10.94,0,15.08,24.54,7.25,24.54,18.33,0,3.69-3,7.09-9.46,7.09-6.65,0-10.05-2.44-11.46-9h-4.51Zm60-5.47c0,8.43-4.36,14.49-11.68,14.49-6.95,0-9.83-3.62-9.83-10.2V389.7H602.8v25.2c0,8,3.4,14.12,13.6,14.12,6.72,0,10-3.69,12.34-6.35V428h4.43V389.7h-4.43v20.84Zm15.35-1.33c0-8.57,2.66-16,12.64-15.74v-4.81c-6.43,0-10.05,2.07-12.49,8.21H644.1V389.7h-4.43V428h4.43V409.21Zm38.7,4.65c0,7.76-6.95,11.16-14,11.16-4.22,0-8.28-2.22-8.28-6.88,0-5.17,4.06-7.61,10.79-8.13,3.85-.3,7.69-0.59,11.46-2.14v6Zm-13.6-7.39c-8.94,1.19-13.38,5.1-13.38,11.53,0,7.39,6.06,11,12.79,11a18.78,18.78,0,0,0,14.27-6.35c0.07,2.66.59,5.25,3.55,5.69a8.69,8.69,0,0,0,2,.22,12.19,12.19,0,0,0,3.48-.74v-3.47c-3.77,1.33-4.66.52-4.66-3V400.57c0-8.87-6.13-11.9-13.89-11.9-8.36,0-15.08,3.62-15.74,12.64h4.51c0.81-6.65,5-8.65,11.16-8.65,6.87,0,9.53,3.25,9.53,7.76,0,1.33-.15,3.33-1.62,4a22.08,22.08,0,0,1-5.84,1.25Zm30,0.89a19.75,19.75,0,0,1,1-7.24,11.17,11.17,0,0,1,10.64-7.47c7.1,0,9.91,3.48,9.91,10.35v25h4.43V402.93c0-3.18-.07-6.06-1.92-8.79-2.74-4-7-5.47-11.68-5.47-5.32,0-8.8,2.59-12.35,6.36V389.7h-4.43V428h4.43V407.37Zm63.47-5.62c-1.33-8.87-7.1-13.08-15.89-13.08-11.46,0-17.59,9.61-17.59,20.25,0,11.31,5.39,20.1,17.59,20.1,9.61,0,14.93-5.76,16.48-14.26h-4.73c-1,6.36-5.17,10.27-11.75,10.27-9.17,0-12.86-8.05-12.86-16.11s3.77-16.26,12.86-16.26c5.91,0,9.83,3.4,11.38,9.09h4.51Zm7.36,4.44c0.89-7.25,5-13.53,12.86-13.53,8,0,12.13,6.06,12.13,13.53H770Zm29.71,3.7c0.07-13.75-6.36-21.21-16.86-21.21-10.93,0-17.59,9.16-17.59,20.33s5.32,20,17.59,20c9.76,0,14.34-5.54,16.56-12.79h-5c-1.33,5.62-5.84,8.79-11.61,8.79-8.5,0-12.93-6.88-12.86-15.15h29.71Z" transform="translate(-399.6 -268.61)"/><path class="cls-2" d="M422.2,427.89H445c1.29,0,1.72-.22,1.72-1.08,0-.43-0.43-0.86-1.29-1.51L422,410.24a3.87,3.87,0,0,0-1.94-.86c-0.43,0-.86.22-0.86,1.51V425.3c0,1.72,1.08,2.58,3,2.58m6.67-90.83v-8.18c0-1.29-.43-2.58-1.93-2.58s-1.94,1.29-1.94,2.58V340.5c0,0.86.64,1.29,1.29,0.43l2.16-2.36a1.63,1.63,0,0,0,.43-1.51m11.62,4.3V324.79a3.24,3.24,0,1,0-6.46,0v12.48c0,1.51.21,1.94,0.65,2.15l4.52,2.8a0.85,0.85,0,0,0,1.29-.86m6.89,5.81,3,1.93a0.82,0.82,0,0,0,1.29-.65v-20c0-1.94-.65-3.23-2.36-3.23s-2.59,1.29-2.59,3.23v17.44a1.13,1.13,0,0,0,.65,1.29m-27.55-25.4a0.4,0.4,0,0,0,0,.64l1.29,1.08a0.65,0.65,0,0,0,.65,0l5.38-6.24,17-3,12.48,8.61a0.66,0.66,0,0,0,.86,0l1.51-1.72a0.4,0.4,0,0,0,0-.64l-1.51-1.3-3.87-6.89L445,306.49l-14.85,2.37c-0.65.21-.65,0.21-0.65,0.86,0,0.43.43,0.43,0.86,0.43l12.7-1.93c0.43,0,.86.21,0.86,1.29s0,1.29-1.08,1.51l-16.36,2.79Zm84.38-53.17H399.6v98.15c0,1.29,1.08,1.5,1.94.65l18.29-22v-17l-5-4.52a2.23,2.23,0,0,1-.86-1.72c0-.65.22-0.86,0.86-1.72l14-16.57,9.9-1.51v-22a1.85,1.85,0,0,1-.65-1.29,1.62,1.62,0,0,1,1.51-1.51,1.54,1.54,0,0,1,1.72,1.51,1.85,1.85,0,0,1-.65,1.29v21.74l4.52-.65,11.41,8,3.88,7.32,3.23,2.36a1.3,1.3,0,0,1,.65,1.3,3.08,3.08,0,0,1-.86,1.72l-6.89,8v20.67l38.53,24.54a2.77,2.77,0,0,1,1.51,1.94,2.73,2.73,0,0,1-1.51,2.37l-7.75,5.81V410l15.28,9.9a0.92,0.92,0,0,0,1.51-.65V268.61Zm-73,118.82,60.91,39.39a4.72,4.72,0,0,0,3,1.08h6.89c1.5,0,2.15-.22,2.15-1.08a1.63,1.63,0,0,0-.86-1.07L432.1,379.67c-1.08-.65-1.94-0.65-1.94,1.07v5.17a1.62,1.62,0,0,0,1.08,1.51m23,1.94,8-2.15c1.07-.21,1.72-0.64,1.72-1.51,0-.65-0.21-1.29-1.29-2.8-1.94-2.58-5.17-6-10.33-6-3.87,0-5.16,2.58-5.16,4.73,0,2.37,1.29,4.3,2.36,5.81a4.45,4.45,0,0,0,3,2.15,4.7,4.7,0,0,0,1.72-.22m-53.17-3,26.48-31.21c0.86-1.07,1.08-1.5,1.51-1.5,0.64,0,.86.43,0.86,1.29v0.64A1.74,1.74,0,0,0,431,357.5l49.51,31.21a1.24,1.24,0,0,0,1.94-1.07v-4.52l5.38-3.88c0.86-.65,1.08-0.86,1.08-1.72a2.51,2.51,0,0,0-1.29-1.72L433.39,342a6,6,0,0,0-2.59-1.08,2.63,2.63,0,0,0-2.15,1.29L400.25,376a2.31,2.31,0,0,0-.65,1.93v8c0,1.08.86,1.29,1.51,0.43m53.6,41.54h29.06c1.72,0,1.72-1.51.43-2.15l-63.28-40.68c-1.08-.64-1.72-0.43-1.72.86v1.73l-18.94,22.6a2.31,2.31,0,0,0-.65,1.51V422.5c0,1.08.22,1.29,0.86,1.29a2.85,2.85,0,0,0,1.29-1.08l15.07-17.86c0.65-.86,1.29-1.72,1.72-1.72s0.64,0.22.64,0.86v0.86c0,1.07,0,1.07,1.08,1.72l31.21,20.23a4.53,4.53,0,0,0,3.23,1.08" transform="translate(-399.6 -268.61)"/><path class="cls-1" d="M802.17,390.34a5.27,5.27,0,1,1,5.12-5.28,5.11,5.11,0,0,1-5.12,5.28m0-11.59a6.32,6.32,0,1,0,6.39,6.3,6.31,6.31,0,0,0-6.39-6.3" transform="translate(-399.6 -268.61)"/><path class="cls-1" d="M800.83,384.62v-2.26h1.5c0.77,0,1.59.17,1.59,1.07,0,1.12-.84,1.19-1.77,1.19h-1.32Zm4.25-1.12c0-1.44-.85-2.07-2.57-2.07h-2.78v7.29h1.1v-3.16h1.27l1.92,3.16h1.24l-2.08-3.21a1.9,1.9,0,0,0,1.89-2" transform="translate(-399.6 -268.61)"/><path class="cls-1" d="M800.83,384.62v-2.26h1.5c0.77,0,1.59.17,1.59,1.07,0,1.12-.84,1.19-1.77,1.19h-1.32Zm4.25-1.12c0-1.44-.85-2.07-2.57-2.07h-2.78v7.29h1.1v-3.16h1.27l1.92,3.16h1.24l-2.08-3.21a1.9,1.9,0,0,0,1.89-2" transform="translate(-399.6 -268.61)"/><path class="cls-1" d="M800.83,384.62v-2.26h1.5c0.77,0,1.59.17,1.59,1.07,0,1.12-.84,1.19-1.77,1.19h-1.32Zm4.25-1.12c0-1.44-.85-2.07-2.57-2.07h-2.78v7.29h1.1v-3.16h1.27l1.92,3.16h1.24l-2.08-3.21a1.9,1.9,0,0,0,1.89-2" transform="translate(-399.6 -268.61)"/></svg>